<svg xmlns:x="http://ns.adobe.com/Extensibility/1.0/" xmlns:i="http://ns.adobe.com/AdobeIllustrator/10.0/" xmlns:graph="http://ns.adobe.com/Graphs/1.0/" xmlns="http://www.w3.org/2000/svg" xmlns:xlink="http://www.w3.org/1999/xlink" version="1.1" x="0px" y="0px" viewBox="0 0 64 80" enable-background="new 0 0 64 64" xml:space="preserve" fill="#fff"><metadata><sfw xmlns="http://ns.adobe.com/SaveForWeb/1.0/"><slices/><sliceSourceBounds y="-8160" x="-8165" width="16389" height="16384" bottomLeftOrigin="true"/><optimizationSettings><targetSettings targetSettingsID="0" fileFormat="PNG24Format"><PNG24Format transparency="true" filtered="false" interlaced="false" noMatteColor="false" matteColor="#FFFFFF"/></targetSettings></optimizationSettings></sfw></metadata><g><g><path d="M32,6C17.664,6,6,17.664,6,32c0,14.337,11.664,26,26,26c14.337,0,26-11.663,26-26C58,17.664,46.337,6,32,6z M32,54    c-12.131,0-22-9.869-22-22s9.869-22,22-22s22,9.869,22,22S44.131,54,32,54z"/><path d="M44.728,19.272c-0.781-0.781-2.047-0.781-2.828,0L32,29.172l-9.899-9.899c-0.78-0.781-2.048-0.781-2.828,0    c-0.781,0.781-0.781,2.047,0,2.828L29.172,32l-9.899,9.899c-0.781,0.781-0.781,2.047,0,2.828c0.39,0.391,0.902,0.586,1.414,0.586    s1.024-0.195,1.414-0.586L32,34.828l9.899,9.899c0.391,0.391,0.902,0.586,1.414,0.586s1.023-0.195,1.414-0.586    c0.781-0.781,0.781-2.047,0-2.828L34.828,32l9.899-9.899C45.509,21.32,45.509,20.053,44.728,19.272z"/></g></g></svg>
