<svg xmlns="http://www.w3.org/2000/svg" xmlns:xlink="http://www.w3.org/1999/xlink" version="1.1" x="0px" y="0px" viewBox="0 0 32 40" enable-background="new 0 0 32 32" xml:space="preserve" fill="#fff"><g><path fill="#fff" d="M16,31.3c-4.1,0-7.9-1.6-10.8-4.5C2.3,23.9,0.8,20.1,0.8,16S2.3,8.1,5.2,5.2C8.1,2.3,11.9,0.8,16,0.8   c4.1,0,7.9,1.6,10.8,4.5c2.9,2.9,4.5,6.7,4.5,10.8c0,4.1-1.6,7.9-4.5,10.8C23.9,29.7,20.1,31.3,16,31.3z M16,2.3   c-3.7,0-7.1,1.4-9.7,4c-2.6,2.6-4,6.1-4,9.7c0,3.7,1.4,7.1,4,9.7c2.6,2.6,6,4,9.7,4c3.7,0,7.1-1.4,9.7-4c2.6-2.6,4-6,4-9.7   c0-3.7-1.4-7.1-4-9.7C23.1,3.7,19.7,2.3,16,2.3z"/></g><g><rect x="15.3" y="9.6" fill="#fff" width="1.5" height="12.8"/></g><g><rect x="9.6" y="15.3" fill="#fff" width="12.8" height="1.5"/></g></svg>
